<mxfile host="app.diagrams.net" agent="Mozilla/5.0 (Windows NT 10.0; Win64; x64) AppleWebKit/537.36 (KHTML, like Gecko) Chrome/127.0.0.0 Safari/537.36" version="24.7.5">
  <diagram name="Page-1" id="YFphNPcwWVgv78bp1yDl">
    <mxGraphModel grid="1" page="1" gridSize="10" guides="1" tooltips="1" connect="1" arrows="1" fold="1" pageScale="1" pageWidth="827" pageHeight="1169" background="#FFFFFF" math="0" shadow="0">
      <root>
        <mxCell id="0" />
        <mxCell id="1" parent="0" />
        <mxCell id="BoD-N17VnrRw7qp8oppk-1" value="&lt;span style=&quot;font-size: 21px;&quot;&gt;&lt;font style=&quot;font-size: 21px;&quot;&gt;Pi Camera&lt;/font&gt;&lt;/span&gt;" style="shape=process;whiteSpace=wrap;html=1;backgroundOutline=1;fontStyle=1;labelBackgroundColor=none;labelBorderColor=none;fontSize=21;" vertex="1" parent="1">
          <mxGeometry y="-120" width="120" height="60" as="geometry" />
        </mxCell>
        <mxCell id="BoD-N17VnrRw7qp8oppk-2" value="&lt;font style=&quot;font-size: 21px;&quot;&gt;&lt;span style=&quot;font-size: 21px;&quot;&gt;Front Camera&lt;/span&gt;&lt;/font&gt;" style="shape=dataStorage;whiteSpace=wrap;html=1;fixedSize=1;fontStyle=1;labelBackgroundColor=none;labelBorderColor=none;fontSize=21;" vertex="1" parent="1">
          <mxGeometry x="180" y="-120" width="180" height="60" as="geometry" />
        </mxCell>
        <mxCell id="BoD-N17VnrRw7qp8oppk-4" value="&lt;font style=&quot;font-size: 21px;&quot;&gt;&lt;br style=&quot;font-size: 21px;&quot;&gt;&lt;span style=&quot;color: rgb(0, 0, 0); font-family: Helvetica; font-style: normal; font-variant-ligatures: normal; font-variant-caps: normal; letter-spacing: normal; orphans: 2; text-align: center; text-indent: 0px; text-transform: none; widows: 2; word-spacing: 0px; -webkit-text-stroke-width: 0px; white-space: normal; text-decoration-thickness: initial; text-decoration-style: initial; text-decoration-color: initial; float: none; font-size: 21px; display: inline !important;&quot;&gt;Hough line Detection Algorithm&lt;/span&gt;&lt;br style=&quot;font-size: 21px;&quot;&gt;&lt;/font&gt;" style="whiteSpace=wrap;html=1;fontStyle=1;labelBackgroundColor=none;labelBorderColor=none;fontSize=21;" vertex="1" parent="1">
          <mxGeometry x="405" y="-130" width="120" height="90" as="geometry" />
        </mxCell>
        <mxCell id="BoD-N17VnrRw7qp8oppk-6" value="&lt;font style=&quot;font-size: 21px;&quot;&gt;Number of Rows Detected&lt;/font&gt;" style="rhombus;whiteSpace=wrap;html=1;fontStyle=1;labelBackgroundColor=none;labelBorderColor=none;fontSize=21;" vertex="1" parent="1">
          <mxGeometry x="360" width="210" height="100" as="geometry" />
        </mxCell>
        <mxCell id="BoD-N17VnrRw7qp8oppk-23" value="" style="edgeStyle=orthogonalEdgeStyle;rounded=0;orthogonalLoop=1;jettySize=auto;html=1;fontStyle=1;labelBackgroundColor=none;labelBorderColor=none;fontColor=default;fontSize=21;" edge="1" parent="1" source="BoD-N17VnrRw7qp8oppk-7" target="BoD-N17VnrRw7qp8oppk-22">
          <mxGeometry relative="1" as="geometry" />
        </mxCell>
        <mxCell id="BoD-N17VnrRw7qp8oppk-7" value="&lt;font style=&quot;font-size: 21px;&quot;&gt;Determine Distance to Row and Turn Angle&lt;/font&gt;" style="whiteSpace=wrap;html=1;fontStyle=1;labelBackgroundColor=none;labelBorderColor=none;fontSize=21;" vertex="1" parent="1">
          <mxGeometry x="390" y="150" width="150" height="90" as="geometry" />
        </mxCell>
        <mxCell id="BoD-N17VnrRw7qp8oppk-8" value="&lt;font style=&quot;font-size: 21px;&quot;&gt;Terminate&lt;/font&gt;" style="strokeWidth=2;html=1;shape=mxgraph.flowchart.terminator;whiteSpace=wrap;fontStyle=1;labelBackgroundColor=none;labelBorderColor=none;fontSize=21;" vertex="1" parent="1">
          <mxGeometry x="130" y="260" width="100" height="60" as="geometry" />
        </mxCell>
        <mxCell id="BoD-N17VnrRw7qp8oppk-22" value="&lt;font style=&quot;font-size: 21px;&quot;&gt;&lt;br style=&quot;font-size: 21px;&quot;&gt;&lt;span style=&quot;color: rgb(0, 0, 0); font-family: Helvetica; font-style: normal; font-variant-ligatures: normal; font-variant-caps: normal; letter-spacing: normal; orphans: 2; text-align: center; text-indent: 0px; text-transform: none; widows: 2; word-spacing: 0px; -webkit-text-stroke-width: 0px; white-space: normal; text-decoration-thickness: initial; text-decoration-style: initial; text-decoration-color: initial; float: none; font-size: 21px; display: inline !important;&quot;&gt;Align Robot&#39;s Centre with Centre of Row&lt;/span&gt;&lt;br style=&quot;font-size: 21px;&quot;&gt;&lt;/font&gt;" style="whiteSpace=wrap;html=1;fontStyle=1;labelBackgroundColor=none;labelBorderColor=none;fontSize=21;" vertex="1" parent="1">
          <mxGeometry x="390" y="290" width="150" height="90" as="geometry" />
        </mxCell>
        <mxCell id="BoD-N17VnrRw7qp8oppk-24" value="" style="endArrow=classic;html=1;rounded=0;entryX=0.5;entryY=0;entryDx=0;entryDy=0;exitX=0.5;exitY=1;exitDx=0;exitDy=0;fontStyle=1;labelBackgroundColor=none;labelBorderColor=none;fontColor=default;fontSize=21;" edge="1" parent="1" source="BoD-N17VnrRw7qp8oppk-22" target="BoD-N17VnrRw7qp8oppk-11">
          <mxGeometry width="50" height="50" relative="1" as="geometry">
            <mxPoint x="360" y="410" as="sourcePoint" />
            <mxPoint x="410" y="360" as="targetPoint" />
          </mxGeometry>
        </mxCell>
        <mxCell id="BoD-N17VnrRw7qp8oppk-25" value="" style="endArrow=classic;html=1;rounded=0;exitX=1;exitY=0.5;exitDx=0;exitDy=0;entryX=1;entryY=1;entryDx=0;entryDy=0;fontStyle=1;labelBackgroundColor=none;labelBorderColor=none;fontColor=default;fontSize=21;" edge="1" parent="1" source="BoD-N17VnrRw7qp8oppk-14" target="BoD-N17VnrRw7qp8oppk-11">
          <mxGeometry width="50" height="50" relative="1" as="geometry">
            <mxPoint x="570" y="600" as="sourcePoint" />
            <mxPoint x="580" y="390" as="targetPoint" />
            <Array as="points">
              <mxPoint x="560" y="633" />
              <mxPoint x="560" y="510" />
            </Array>
          </mxGeometry>
        </mxCell>
        <mxCell id="BoD-N17VnrRw7qp8oppk-13" value="" style="edgeStyle=orthogonalEdgeStyle;rounded=0;orthogonalLoop=1;jettySize=auto;html=1;fontStyle=1;entryX=0.5;entryY=0;entryDx=0;entryDy=0;labelBackgroundColor=none;labelBorderColor=none;fontColor=default;fontSize=21;" edge="1" parent="1" source="BoD-N17VnrRw7qp8oppk-11" target="BoD-N17VnrRw7qp8oppk-14">
          <mxGeometry relative="1" as="geometry">
            <mxPoint x="450" y="600" as="targetPoint" />
          </mxGeometry>
        </mxCell>
        <mxCell id="BoD-N17VnrRw7qp8oppk-11" value="&lt;font style=&quot;font-size: 21px;&quot;&gt;Move Forward&lt;/font&gt;" style="rounded=0;whiteSpace=wrap;html=1;fontStyle=1;labelBackgroundColor=none;labelBorderColor=none;fontSize=21;" vertex="1" parent="1">
          <mxGeometry x="405" y="430" width="120" height="80" as="geometry" />
        </mxCell>
        <mxCell id="BoD-N17VnrRw7qp8oppk-16" value="" style="edgeStyle=orthogonalEdgeStyle;rounded=0;orthogonalLoop=1;jettySize=auto;html=1;fontStyle=1;labelBackgroundColor=none;labelBorderColor=none;fontColor=default;fontSize=21;" edge="1" parent="1" source="BoD-N17VnrRw7qp8oppk-14" target="BoD-N17VnrRw7qp8oppk-15">
          <mxGeometry relative="1" as="geometry" />
        </mxCell>
        <mxCell id="BoD-N17VnrRw7qp8oppk-14" value="&lt;font style=&quot;font-size: 21px;&quot;&gt;Weed Detected?&lt;/font&gt;" style="rhombus;whiteSpace=wrap;html=1;fontStyle=1;labelBackgroundColor=none;labelBorderColor=none;fontSize=21;" vertex="1" parent="1">
          <mxGeometry x="397.5" y="572.5" width="135" height="120" as="geometry" />
        </mxCell>
        <mxCell id="BoD-N17VnrRw7qp8oppk-18" value="" style="edgeStyle=orthogonalEdgeStyle;rounded=0;orthogonalLoop=1;jettySize=auto;html=1;fontStyle=1;labelBackgroundColor=none;labelBorderColor=none;fontColor=default;fontSize=21;" edge="1" parent="1" source="BoD-N17VnrRw7qp8oppk-15" target="BoD-N17VnrRw7qp8oppk-17">
          <mxGeometry relative="1" as="geometry" />
        </mxCell>
        <mxCell id="BoD-N17VnrRw7qp8oppk-15" value="&lt;font style=&quot;font-size: 21px;&quot;&gt;Stop&lt;/font&gt;" style="whiteSpace=wrap;html=1;fontStyle=1;labelBackgroundColor=none;labelBorderColor=none;fontSize=21;" vertex="1" parent="1">
          <mxGeometry x="405" y="740" width="120" height="60" as="geometry" />
        </mxCell>
        <mxCell id="BoD-N17VnrRw7qp8oppk-20" value="" style="edgeStyle=orthogonalEdgeStyle;rounded=0;orthogonalLoop=1;jettySize=auto;html=1;fontStyle=1;labelBackgroundColor=none;labelBorderColor=none;fontColor=default;fontSize=21;" edge="1" parent="1" source="BoD-N17VnrRw7qp8oppk-17" target="BoD-N17VnrRw7qp8oppk-19">
          <mxGeometry relative="1" as="geometry" />
        </mxCell>
        <mxCell id="BoD-N17VnrRw7qp8oppk-17" value="&lt;font style=&quot;font-size: 21px;&quot;&gt;Weed Elimination Algorithm&lt;/font&gt;" style="whiteSpace=wrap;html=1;fontStyle=1;labelBackgroundColor=none;labelBorderColor=none;fontSize=21;" vertex="1" parent="1">
          <mxGeometry x="400" y="840" width="130" height="80" as="geometry" />
        </mxCell>
        <mxCell id="BoD-N17VnrRw7qp8oppk-19" value="&lt;font style=&quot;font-size: 21px;&quot;&gt;All Weeds Eliminated?&lt;/font&gt;" style="rhombus;whiteSpace=wrap;html=1;fontStyle=1;labelBackgroundColor=none;labelBorderColor=none;fontSize=21;" vertex="1" parent="1">
          <mxGeometry x="390" y="960" width="150" height="140" as="geometry" />
        </mxCell>
        <mxCell id="BoD-N17VnrRw7qp8oppk-26" value="&lt;font style=&quot;font-size: 21px;&quot;&gt;Derivation between Robot and Row Centre&lt;/font&gt;" style="rhombus;whiteSpace=wrap;html=1;fontStyle=1;labelBackgroundColor=none;labelBorderColor=none;fontSize=21;" vertex="1" parent="1">
          <mxGeometry x="30" y="572.5" width="300" height="207.5" as="geometry" />
        </mxCell>
        <mxCell id="BoD-N17VnrRw7qp8oppk-27" value="" style="endArrow=classic;html=1;rounded=0;exitX=0;exitY=0.5;exitDx=0;exitDy=0;entryX=0;entryY=0.5;entryDx=0;entryDy=0;fontStyle=1;labelBackgroundColor=none;labelBorderColor=none;fontColor=default;fontSize=21;" edge="1" parent="1" source="BoD-N17VnrRw7qp8oppk-26" target="BoD-N17VnrRw7qp8oppk-22">
          <mxGeometry width="50" height="50" relative="1" as="geometry">
            <mxPoint x="260" y="530" as="sourcePoint" />
            <mxPoint x="310" y="480" as="targetPoint" />
            <Array as="points">
              <mxPoint y="676" />
              <mxPoint y="335" />
            </Array>
          </mxGeometry>
        </mxCell>
        <mxCell id="BoD-N17VnrRw7qp8oppk-28" value="" style="endArrow=classic;html=1;rounded=0;exitX=1;exitY=0.5;exitDx=0;exitDy=0;entryX=0;entryY=0.5;entryDx=0;entryDy=0;fontStyle=1;labelBackgroundColor=none;labelBorderColor=none;fontColor=default;fontSize=21;" edge="1" parent="1" source="BoD-N17VnrRw7qp8oppk-26" target="BoD-N17VnrRw7qp8oppk-11">
          <mxGeometry width="50" height="50" relative="1" as="geometry">
            <mxPoint x="210" y="590" as="sourcePoint" />
            <mxPoint x="290" y="520" as="targetPoint" />
            <Array as="points">
              <mxPoint x="330" y="470" />
            </Array>
          </mxGeometry>
        </mxCell>
        <mxCell id="BoD-N17VnrRw7qp8oppk-29" value="" style="endArrow=classic;html=1;rounded=0;exitX=0;exitY=0;exitDx=0;exitDy=0;entryX=0.5;entryY=0;entryDx=0;entryDy=0;fontStyle=1;labelBackgroundColor=none;labelBorderColor=none;fontColor=default;fontSize=21;" edge="1" parent="1" source="BoD-N17VnrRw7qp8oppk-11" target="BoD-N17VnrRw7qp8oppk-26">
          <mxGeometry width="50" height="50" relative="1" as="geometry">
            <mxPoint x="260" y="540" as="sourcePoint" />
            <mxPoint x="220" y="490" as="targetPoint" />
            <Array as="points">
              <mxPoint x="180" y="430" />
            </Array>
          </mxGeometry>
        </mxCell>
        <mxCell id="BoD-N17VnrRw7qp8oppk-30" value="" style="endArrow=classic;html=1;rounded=0;exitX=0;exitY=0.5;exitDx=0;exitDy=0;entryX=0;entryY=0.5;entryDx=0;entryDy=0;fontStyle=1;labelBackgroundColor=none;labelBorderColor=none;fontColor=default;fontSize=21;" edge="1" parent="1" source="BoD-N17VnrRw7qp8oppk-19" target="BoD-N17VnrRw7qp8oppk-17">
          <mxGeometry width="50" height="50" relative="1" as="geometry">
            <mxPoint x="280" y="1010" as="sourcePoint" />
            <mxPoint x="330" y="960" as="targetPoint" />
            <Array as="points">
              <mxPoint x="280" y="1030" />
              <mxPoint x="280" y="880" />
            </Array>
          </mxGeometry>
        </mxCell>
        <mxCell id="BoD-N17VnrRw7qp8oppk-31" value="" style="endArrow=classic;html=1;rounded=0;exitX=1;exitY=0.5;exitDx=0;exitDy=0;entryX=1;entryY=0.75;entryDx=0;entryDy=0;fontStyle=1;labelBackgroundColor=none;labelBorderColor=none;fontColor=default;fontSize=21;" edge="1" parent="1" source="BoD-N17VnrRw7qp8oppk-19" target="BoD-N17VnrRw7qp8oppk-11">
          <mxGeometry width="50" height="50" relative="1" as="geometry">
            <mxPoint x="530" y="990" as="sourcePoint" />
            <mxPoint x="510" y="520" as="targetPoint" />
            <Array as="points">
              <mxPoint x="620" y="1030" />
              <mxPoint x="620" y="490" />
            </Array>
          </mxGeometry>
        </mxCell>
        <mxCell id="BoD-N17VnrRw7qp8oppk-32" value="&lt;font style=&quot;font-size: 21px;&quot;&gt;How the Row Ended&lt;/font&gt;" style="rhombus;whiteSpace=wrap;html=1;fontStyle=1;labelBackgroundColor=none;labelBorderColor=none;fontSize=21;" vertex="1" parent="1">
          <mxGeometry x="640" y="590" width="175" height="140" as="geometry" />
        </mxCell>
        <mxCell id="BoD-N17VnrRw7qp8oppk-33" value="" style="endArrow=classic;html=1;rounded=0;exitX=1;exitY=0;exitDx=0;exitDy=0;entryX=0.5;entryY=0;entryDx=0;entryDy=0;fontStyle=1;labelBackgroundColor=none;labelBorderColor=none;fontColor=default;fontSize=21;" edge="1" parent="1" source="BoD-N17VnrRw7qp8oppk-11" target="BoD-N17VnrRw7qp8oppk-32">
          <mxGeometry width="50" height="50" relative="1" as="geometry">
            <mxPoint x="620" y="540" as="sourcePoint" />
            <mxPoint x="670" y="490" as="targetPoint" />
            <Array as="points">
              <mxPoint x="728" y="430" />
            </Array>
          </mxGeometry>
        </mxCell>
        <mxCell id="BoD-N17VnrRw7qp8oppk-34" value="" style="endArrow=classic;html=1;rounded=0;exitX=0;exitY=0.5;exitDx=0;exitDy=0;entryX=1;entryY=0.25;entryDx=0;entryDy=0;fontStyle=1;labelBackgroundColor=none;labelBorderColor=none;fontColor=default;fontSize=21;" edge="1" parent="1" source="BoD-N17VnrRw7qp8oppk-32" target="BoD-N17VnrRw7qp8oppk-11">
          <mxGeometry width="50" height="50" relative="1" as="geometry">
            <mxPoint x="630" y="620" as="sourcePoint" />
            <mxPoint x="680" y="570" as="targetPoint" />
            <Array as="points">
              <mxPoint x="640" y="450" />
            </Array>
          </mxGeometry>
        </mxCell>
        <mxCell id="BoD-N17VnrRw7qp8oppk-35" value="&lt;font style=&quot;font-size: 21px;&quot;&gt;Exit the Row and Turn 180°&lt;/font&gt;" style="rounded=0;whiteSpace=wrap;html=1;fontStyle=1;labelBackgroundColor=none;labelBorderColor=none;fontSize=21;" vertex="1" parent="1">
          <mxGeometry x="652.5" y="770" width="150" height="70" as="geometry" />
        </mxCell>
        <mxCell id="BoD-N17VnrRw7qp8oppk-36" value="&lt;font style=&quot;font-size: 21px;&quot;&gt;&lt;br style=&quot;font-size: 21px;&quot;&gt;&lt;span style=&quot;color: rgb(0, 0, 0); font-family: Helvetica; font-style: normal; font-variant-ligatures: normal; font-variant-caps: normal; font-weight: 700; letter-spacing: normal; orphans: 2; text-align: center; text-indent: 0px; text-transform: none; widows: 2; word-spacing: 0px; -webkit-text-stroke-width: 0px; white-space: normal; text-decoration-thickness: initial; text-decoration-style: initial; text-decoration-color: initial; float: none; font-size: 21px; display: inline !important;&quot;&gt;Determine Nearest Crop Row&lt;/span&gt;&lt;br style=&quot;font-size: 21px;&quot;&gt;&lt;/font&gt;" style="rounded=0;whiteSpace=wrap;html=1;labelBackgroundColor=none;labelBorderColor=none;fontSize=21;" vertex="1" parent="1">
          <mxGeometry x="640" y="265" width="130" height="85" as="geometry" />
        </mxCell>
        <mxCell id="BoD-N17VnrRw7qp8oppk-37" value="" style="endArrow=classic;html=1;rounded=0;exitX=0.5;exitY=1;exitDx=0;exitDy=0;entryX=0.5;entryY=0;entryDx=0;entryDy=0;labelBackgroundColor=none;labelBorderColor=none;fontColor=default;fontSize=21;" edge="1" parent="1" source="BoD-N17VnrRw7qp8oppk-4" target="BoD-N17VnrRw7qp8oppk-6">
          <mxGeometry width="50" height="50" relative="1" as="geometry">
            <mxPoint x="320" y="180" as="sourcePoint" />
            <mxPoint x="370" y="130" as="targetPoint" />
          </mxGeometry>
        </mxCell>
        <mxCell id="BoD-N17VnrRw7qp8oppk-38" value="" style="endArrow=classic;html=1;rounded=0;exitX=0.5;exitY=1;exitDx=0;exitDy=0;entryX=0.5;entryY=0;entryDx=0;entryDy=0;labelBackgroundColor=none;labelBorderColor=none;fontColor=default;fontSize=21;" edge="1" parent="1" source="BoD-N17VnrRw7qp8oppk-6" target="BoD-N17VnrRw7qp8oppk-7">
          <mxGeometry width="50" height="50" relative="1" as="geometry">
            <mxPoint x="350" y="270" as="sourcePoint" />
            <mxPoint x="400" y="220" as="targetPoint" />
          </mxGeometry>
        </mxCell>
        <mxCell id="BoD-N17VnrRw7qp8oppk-48" value="&lt;b style=&quot;font-size: 21px;&quot;&gt;&lt;font style=&quot;font-size: 21px;&quot;&gt;1&lt;/font&gt;&lt;/b&gt;" style="edgeLabel;html=1;align=center;verticalAlign=middle;resizable=0;points=[];labelBackgroundColor=none;labelBorderColor=none;fontSize=21;" vertex="1" connectable="0" parent="BoD-N17VnrRw7qp8oppk-38">
          <mxGeometry x="-0.4438" relative="1" as="geometry">
            <mxPoint x="25" as="offset" />
          </mxGeometry>
        </mxCell>
        <mxCell id="BoD-N17VnrRw7qp8oppk-39" value="" style="endArrow=classic;html=1;rounded=0;exitX=1;exitY=0.5;exitDx=0;exitDy=0;entryX=0;entryY=0.5;entryDx=0;entryDy=0;labelBackgroundColor=none;labelBorderColor=none;fontColor=default;fontSize=21;" edge="1" parent="1" source="BoD-N17VnrRw7qp8oppk-1" target="BoD-N17VnrRw7qp8oppk-2">
          <mxGeometry width="50" height="50" relative="1" as="geometry">
            <mxPoint x="160" y="150" as="sourcePoint" />
            <mxPoint x="210" y="100" as="targetPoint" />
          </mxGeometry>
        </mxCell>
        <mxCell id="BoD-N17VnrRw7qp8oppk-40" value="" style="html=1;labelBackgroundColor=none;startArrow=none;startFill=0;startSize=6;endArrow=classic;endFill=1;endSize=6;jettySize=auto;orthogonalLoop=1;strokeWidth=1;dashed=1;fontSize=21;rounded=0;entryX=0;entryY=0.5;entryDx=0;entryDy=0;exitX=0.897;exitY=0.583;exitDx=0;exitDy=0;exitPerimeter=0;labelBorderColor=none;fontColor=default;" edge="1" parent="1" source="BoD-N17VnrRw7qp8oppk-2" target="BoD-N17VnrRw7qp8oppk-4">
          <mxGeometry width="60" height="60" relative="1" as="geometry">
            <mxPoint x="356" y="75" as="sourcePoint" />
            <mxPoint x="400" y="120" as="targetPoint" />
          </mxGeometry>
        </mxCell>
        <mxCell id="BoD-N17VnrRw7qp8oppk-41" value="" style="endArrow=classic;html=1;rounded=0;entryX=0.5;entryY=0;entryDx=0;entryDy=0;entryPerimeter=0;exitX=0;exitY=0.5;exitDx=0;exitDy=0;labelBackgroundColor=none;labelBorderColor=none;fontColor=default;fontSize=21;" edge="1" parent="1" source="BoD-N17VnrRw7qp8oppk-6" target="BoD-N17VnrRw7qp8oppk-8">
          <mxGeometry width="50" height="50" relative="1" as="geometry">
            <mxPoint x="210" y="230" as="sourcePoint" />
            <mxPoint x="260" y="180" as="targetPoint" />
            <Array as="points">
              <mxPoint x="180" y="50" />
              <mxPoint x="180" y="190" />
            </Array>
          </mxGeometry>
        </mxCell>
        <mxCell id="BoD-N17VnrRw7qp8oppk-47" value="&lt;b style=&quot;font-size: 21px;&quot;&gt;&lt;font style=&quot;font-size: 21px;&quot;&gt;0&lt;/font&gt;&lt;/b&gt;" style="edgeLabel;html=1;align=center;verticalAlign=middle;resizable=0;points=[];labelBackgroundColor=none;labelBorderColor=none;fontSize=21;" vertex="1" connectable="0" parent="BoD-N17VnrRw7qp8oppk-41">
          <mxGeometry x="-0.2577" y="-1" relative="1" as="geometry">
            <mxPoint y="-19" as="offset" />
          </mxGeometry>
        </mxCell>
        <mxCell id="BoD-N17VnrRw7qp8oppk-42" value="" style="endArrow=classic;html=1;rounded=0;exitX=1;exitY=0.5;exitDx=0;exitDy=0;entryX=0.5;entryY=0;entryDx=0;entryDy=0;labelBackgroundColor=none;labelBorderColor=none;fontColor=default;fontSize=21;" edge="1" parent="1" source="BoD-N17VnrRw7qp8oppk-6" target="BoD-N17VnrRw7qp8oppk-36">
          <mxGeometry width="50" height="50" relative="1" as="geometry">
            <mxPoint x="590" y="210" as="sourcePoint" />
            <mxPoint x="640" y="160" as="targetPoint" />
            <Array as="points">
              <mxPoint x="705" y="50" />
            </Array>
          </mxGeometry>
        </mxCell>
        <mxCell id="BoD-N17VnrRw7qp8oppk-43" value="" style="endArrow=classic;html=1;rounded=0;entryX=1.004;entryY=0.448;entryDx=0;entryDy=0;exitX=0.001;exitY=0.41;exitDx=0;exitDy=0;exitPerimeter=0;entryPerimeter=0;labelBackgroundColor=none;labelBorderColor=none;fontColor=default;fontSize=21;" edge="1" parent="1" source="BoD-N17VnrRw7qp8oppk-36" target="BoD-N17VnrRw7qp8oppk-7">
          <mxGeometry width="50" height="50" relative="1" as="geometry">
            <mxPoint x="630" y="300" as="sourcePoint" />
            <mxPoint x="660" y="270" as="targetPoint" />
            <Array as="points">
              <mxPoint x="640" y="190" />
            </Array>
          </mxGeometry>
        </mxCell>
        <mxCell id="BoD-N17VnrRw7qp8oppk-45" value="" style="endArrow=classic;html=1;rounded=0;exitX=0.5;exitY=1;exitDx=0;exitDy=0;entryX=0.5;entryY=0;entryDx=0;entryDy=0;labelBackgroundColor=none;labelBorderColor=none;fontColor=default;fontSize=21;" edge="1" parent="1" source="BoD-N17VnrRw7qp8oppk-32" target="BoD-N17VnrRw7qp8oppk-35">
          <mxGeometry width="50" height="50" relative="1" as="geometry">
            <mxPoint x="710" y="920" as="sourcePoint" />
            <mxPoint x="760" y="870" as="targetPoint" />
          </mxGeometry>
        </mxCell>
        <mxCell id="BoD-N17VnrRw7qp8oppk-46" value="" style="endArrow=classic;html=1;rounded=0;exitX=1;exitY=0.5;exitDx=0;exitDy=0;entryX=1;entryY=0.5;entryDx=0;entryDy=0;labelBackgroundColor=none;labelBorderColor=none;fontColor=default;fontSize=21;" edge="1" parent="1" source="BoD-N17VnrRw7qp8oppk-35" target="BoD-N17VnrRw7qp8oppk-4">
          <mxGeometry width="50" height="50" relative="1" as="geometry">
            <mxPoint x="690" y="910" as="sourcePoint" />
            <mxPoint x="790" y="288.7059110753676" as="targetPoint" />
            <Array as="points">
              <mxPoint x="830" y="805" />
              <mxPoint x="830" y="-85" />
            </Array>
          </mxGeometry>
        </mxCell>
        <mxCell id="BoD-N17VnrRw7qp8oppk-49" value="&lt;b style=&quot;font-size: 21px;&quot;&gt;&lt;font style=&quot;font-size: 21px;&quot;&gt;&amp;gt;1&lt;/font&gt;&lt;/b&gt;" style="edgeLabel;html=1;align=center;verticalAlign=middle;resizable=0;points=[];labelBackgroundColor=none;labelBorderColor=none;fontSize=21;" vertex="1" connectable="0" parent="1">
          <mxGeometry x="500" y="255.21739130434776" as="geometry">
            <mxPoint x="99" y="-82" as="offset" />
          </mxGeometry>
        </mxCell>
        <mxCell id="BoD-N17VnrRw7qp8oppk-51" value="&lt;span style=&quot;font-size: 21px;&quot;&gt;&lt;b style=&quot;font-size: 21px;&quot;&gt;&amp;lt;5°&lt;/b&gt;&lt;/span&gt;" style="edgeLabel;html=1;align=center;verticalAlign=middle;resizable=0;points=[];labelBackgroundColor=none;labelBorderColor=none;fontSize=21;" vertex="1" connectable="0" parent="1">
          <mxGeometry x="470" y="509.99739130434773" as="geometry">
            <mxPoint x="-171" y="74" as="offset" />
          </mxGeometry>
        </mxCell>
        <mxCell id="BoD-N17VnrRw7qp8oppk-52" value="&lt;span style=&quot;font-size: 21px;&quot;&gt;&lt;b style=&quot;font-size: 21px;&quot;&gt;≥&lt;/b&gt;&lt;/span&gt;&lt;b style=&quot;font-size: 21px;&quot;&gt;5°&lt;/b&gt;" style="edgeLabel;html=1;align=center;verticalAlign=middle;resizable=0;points=[];labelBackgroundColor=none;labelBorderColor=none;fontSize=21;" vertex="1" connectable="0" parent="1">
          <mxGeometry x="270" y="509.99739130434773" as="geometry">
            <mxPoint x="-171" y="74" as="offset" />
          </mxGeometry>
        </mxCell>
        <mxCell id="BoD-N17VnrRw7qp8oppk-54" value="&lt;div style=&quot;text-align: center; font-size: 21px;&quot;&gt;&lt;span style=&quot;font-size: 21px; text-wrap: nowrap;&quot;&gt;&lt;b style=&quot;font-size: 21px;&quot;&gt;No&lt;/b&gt;&lt;/span&gt;&lt;/div&gt;" style="text;whiteSpace=wrap;html=1;labelBackgroundColor=none;labelBorderColor=none;fontSize=21;" vertex="1" parent="1">
          <mxGeometry x="525" y="590" width="30" height="30" as="geometry" />
        </mxCell>
        <mxCell id="BoD-N17VnrRw7qp8oppk-56" value="&lt;div style=&quot;text-align: center; font-size: 21px;&quot;&gt;&lt;span style=&quot;font-size: 21px; text-wrap: nowrap;&quot;&gt;&lt;b style=&quot;font-size: 21px;&quot;&gt;Yes&lt;/b&gt;&lt;/span&gt;&lt;/div&gt;" style="text;whiteSpace=wrap;html=1;labelBackgroundColor=none;labelBorderColor=none;fontSize=21;" vertex="1" parent="1">
          <mxGeometry x="485" y="680" width="30" height="30" as="geometry" />
        </mxCell>
        <mxCell id="uXJVo1g3sNpK3ot8Nxfb-1" value="&lt;div style=&quot;text-align: center; font-size: 21px;&quot;&gt;&lt;span style=&quot;font-size: 21px; text-wrap: nowrap;&quot;&gt;&lt;b style=&quot;font-size: 21px;&quot;&gt;Yes&lt;/b&gt;&lt;/span&gt;&lt;/div&gt;" style="text;whiteSpace=wrap;html=1;labelBackgroundColor=none;labelBorderColor=none;fontSize=21;" vertex="1" parent="1">
          <mxGeometry x="580" y="990" width="30" height="30" as="geometry" />
        </mxCell>
        <mxCell id="uXJVo1g3sNpK3ot8Nxfb-2" value="&lt;div style=&quot;text-align: center; font-size: 21px;&quot;&gt;&lt;span style=&quot;font-size: 21px; text-wrap: nowrap;&quot;&gt;&lt;b style=&quot;font-size: 21px;&quot;&gt;Yes&lt;/b&gt;&lt;/span&gt;&lt;/div&gt;" style="text;whiteSpace=wrap;html=1;labelBackgroundColor=none;labelBorderColor=none;fontSize=21;" vertex="1" parent="1">
          <mxGeometry x="730" y="730" width="30" height="30" as="geometry" />
        </mxCell>
        <mxCell id="uXJVo1g3sNpK3ot8Nxfb-3" value="&lt;div style=&quot;text-align: center; font-size: 21px;&quot;&gt;&lt;span style=&quot;font-size: 21px; text-wrap: nowrap;&quot;&gt;&lt;b style=&quot;font-size: 21px;&quot;&gt;No&lt;/b&gt;&lt;/span&gt;&lt;/div&gt;" style="text;whiteSpace=wrap;html=1;labelBackgroundColor=none;labelBorderColor=none;fontSize=21;" vertex="1" parent="1">
          <mxGeometry x="650" y="520" width="30" height="30" as="geometry" />
        </mxCell>
        <mxCell id="uXJVo1g3sNpK3ot8Nxfb-4" value="&lt;div style=&quot;text-align: center; font-size: 21px;&quot;&gt;&lt;span style=&quot;font-size: 21px; text-wrap: nowrap;&quot;&gt;&lt;b style=&quot;font-size: 21px;&quot;&gt;No&lt;/b&gt;&lt;/span&gt;&lt;/div&gt;" style="text;whiteSpace=wrap;html=1;labelBackgroundColor=none;labelBorderColor=none;fontSize=21;" vertex="1" parent="1">
          <mxGeometry x="290" y="940" width="30" height="30" as="geometry" />
        </mxCell>
      </root>
    </mxGraphModel>
  </diagram>
</mxfile>
